<svg width="207" height="71" viewBox="0 0 207 71" fill="none" xmlns="http://www.w3.org/2000/svg">
<path d="M1 18C1 8.61116 8.61116 1 18 1H189C198.389 1 206 8.61116 206 18V53C206 62.3888 198.389 70 189 70H18C8.61116 70 1 62.3888 1 53V18Z" fill="#292F36"/>
<path d="M161 36L185 35" stroke="#CDA274" stroke-width="2" stroke-linecap="square" stroke-linejoin="round"/>
<path d="M176.217 18L187 35.8206L176 54" stroke="#CDA274" stroke-width="2" stroke-linecap="square" stroke-linejoin="round"/>
<path d="M1 18C1 8.61116 8.61116 1 18 1H189C198.389 1 206 8.61116 206 18V53C206 62.3888 198.389 70 189 70H18C8.61116 70 1 62.3888 1 53V18Z" stroke="#292F36" stroke-width="2"/>
</svg>
