<svg width="132" height="28" viewBox="0 0 132 28" fill="none" xmlns="http://www.w3.org/2000/svg">
<path d="M0.880005 27V26.6L1.68 26.28C2.2133 26.0933 2.56001 25.84 2.72001 25.52C2.90671 25.2 3 24.7733 3 24.24V3.36C3 2.8267 2.92 2.4 2.76 2.08C2.6 1.76 2.24 1.5067 1.68 1.32L0.880005 0.999998V0.599998H11.16V0.999998L10.36 1.32C9.8267 1.5067 9.4667 1.76 9.28 2.08C9.12 2.4 9.04 2.8267 9.04 3.36V24.24C9.04 24.7733 9.12 25.2 9.28 25.52C9.4667 25.8133 9.8267 26.0667 10.36 26.28L11.16 26.6V27H0.880005ZM12.8313 27V26.6L13.3913 26.44C14.3246 26.1733 14.7913 25.52 14.7913 24.48V11.96C14.7913 11.3733 14.6979 10.9467 14.5113 10.68C14.3246 10.3867 13.9646 10.1867 13.4313 10.08L12.8313 9.92V9.52L19.6713 7.2L20.0713 7.6L20.3913 10C21.3246 9.1733 22.3779 8.4933 23.5513 7.96C24.7246 7.4267 25.8846 7.16 27.0313 7.16C28.7913 7.16 30.1379 7.64 31.0713 8.6C32.0313 9.56 32.5113 11.0267 32.5113 13V24.52C32.5113 25.56 33.0179 26.2133 34.0313 26.48L34.3913 26.6V27H24.9513V26.6L25.4713 26.44C26.4046 26.1467 26.8713 25.4933 26.8713 24.48V11.72C26.8713 10.0133 26.0179 9.16 24.3113 9.16C23.1379 9.16 21.8579 9.7467 20.4713 10.92V24.52C20.4713 25.56 20.9379 26.2133 21.8713 26.48L22.2313 26.6V27H12.8313ZM43.3609 27.6C41.6543 27.6 40.3209 27.1733 39.3609 26.32C38.4276 25.4667 37.9609 24.1067 37.9609 22.24V8.56H35.2009V8.16L36.1609 8C36.9876 7.8133 37.6943 7.5467 38.2809 7.2C38.8943 6.8533 39.4943 6.3867 40.0809 5.8L43.3609 2.16H43.7609L43.6409 7.76H48.1209V8.56H43.6009V22.96C43.6009 23.8933 43.8009 24.6 44.2009 25.08C44.6276 25.56 45.1609 25.8 45.8009 25.8C46.3609 25.8 46.8543 25.6667 47.2809 25.4C47.7076 25.1067 48.1343 24.72 48.5609 24.24L48.9609 24.64C48.4276 25.5467 47.6943 26.2667 46.7609 26.8C45.8276 27.3333 44.6943 27.6 43.3609 27.6ZM60.137 7.16C61.87 7.16 63.35 7.52 64.577 8.24C65.804 8.9333 66.737 9.8933 67.377 11.12C68.044 12.32 68.377 13.6933 68.377 15.24C68.377 15.5333 68.364 15.84 68.337 16.16C68.31 16.4533 68.257 16.72 68.177 16.96H56.257C56.284 19.84 56.79 21.92 57.777 23.2C58.79 24.4533 60.284 25.08 62.257 25.08C63.59 25.08 64.67 24.8667 65.497 24.44C66.324 24.0133 67.097 23.3867 67.817 22.56L68.217 22.92C67.39 24.3867 66.284 25.5333 64.897 26.36C63.537 27.1867 61.897 27.6 59.977 27.6C58.084 27.6 56.404 27.2 54.9369 26.4C53.4702 25.5733 52.3235 24.4 51.4969 22.88C50.6702 21.36 50.2569 19.5467 50.2569 17.44C50.2569 15.2533 50.7369 13.4 51.6969 11.88C52.6569 10.3333 53.8835 9.16 55.3769 8.36C56.897 7.56 58.484 7.16 60.137 7.16ZM60.017 7.96C59.244 7.96 58.577 8.2 58.017 8.68C57.484 9.1333 57.057 9.96 56.737 11.16C56.444 12.3333 56.284 14 56.257 16.16H63.097C63.364 13.2533 63.257 11.16 62.777 9.88C62.297 8.6 61.377 7.96 60.017 7.96ZM70.37 27V26.6L70.97 26.44C71.504 26.28 71.864 26.04 72.05 25.72C72.264 25.4 72.37 24.9867 72.37 24.48V11.96C72.37 11.3733 72.264 10.9467 72.05 10.68C71.864 10.3867 71.504 10.1867 70.97 10.08L70.37 9.92V9.52L77.25 7.2L77.65 7.6L78.01 11.04V11.36C78.384 10.6133 78.864 9.9333 79.45 9.32C80.064 8.68 80.73 8.16 81.45 7.76C82.197 7.36 82.93 7.16 83.65 7.16C84.664 7.16 85.437 7.44 85.97 8C86.504 8.56 86.77 9.2667 86.77 10.12C86.77 11.0267 86.504 11.7333 85.97 12.24C85.464 12.72 84.85 12.96 84.13 12.96C83.01 12.96 82.024 12.4 81.17 11.28L81.09 11.2C80.824 10.8267 80.517 10.6267 80.17 10.6C79.824 10.5467 79.504 10.7067 79.21 11.08C78.944 11.32 78.717 11.6133 78.53 11.96C78.37 12.28 78.21 12.6533 78.05 13.08V24.24C78.05 25.3067 78.517 25.9733 79.45 26.24L80.73 26.6V27H70.37ZM88.027 27V26.6L88.587 26.44C89.52 26.1733 89.987 25.52 89.987 24.48V11.96C89.987 11.3733 89.893 10.9467 89.707 10.68C89.52 10.3867 89.16 10.1867 88.627 10.08L88.027 9.92V9.52L94.867 7.2L95.267 7.6L95.587 10C96.52 9.1733 97.573 8.4933 98.747 7.96C99.92 7.4267 101.08 7.16 102.227 7.16C103.987 7.16 105.333 7.64 106.267 8.6C107.227 9.56 107.707 11.0267 107.707 13V24.52C107.707 25.56 108.213 26.2133 109.227 26.48L109.587 26.6V27H100.147V26.6L100.667 26.44C101.6 26.1467 102.067 25.4933 102.067 24.48V11.72C102.067 10.0133 101.213 9.16 99.507 9.16C98.333 9.16 97.053 9.7467 95.667 10.92V24.52C95.667 25.56 96.133 26.2133 97.067 26.48L97.427 26.6V27H88.027ZM121.272 27.6C119.245 27.6 117.485 27.1867 115.992 26.36C114.498 25.5067 113.338 24.3067 112.512 22.76C111.712 21.2133 111.312 19.4 111.312 17.32C111.312 15.24 111.738 13.44 112.592 11.92C113.472 10.4 114.658 9.2267 116.152 8.4C117.672 7.5733 119.378 7.16 121.272 7.16C123.165 7.16 124.858 7.5733 126.352 8.4C127.845 9.2 129.018 10.36 129.872 11.88C130.752 13.4 131.192 15.2133 131.192 17.32C131.192 19.4267 130.778 21.2533 129.952 22.8C129.152 24.32 128.005 25.5067 126.512 26.36C125.045 27.1867 123.298 27.6 121.272 27.6ZM121.272 26.8C122.205 26.8 122.952 26.5333 123.512 26C124.072 25.4667 124.472 24.52 124.712 23.16C124.978 21.8 125.112 19.88 125.112 17.4C125.112 14.8933 124.978 12.96 124.712 11.6C124.472 10.24 124.072 9.2933 123.512 8.76C122.952 8.2267 122.205 7.96 121.272 7.96C120.338 7.96 119.578 8.2267 118.992 8.76C118.432 9.2933 118.018 10.24 117.752 11.6C117.512 12.96 117.392 14.8933 117.392 17.4C117.392 19.88 117.512 21.8 117.752 23.16C118.018 24.52 118.432 25.4667 118.992 26C119.578 26.5333 120.338 26.8 121.272 26.8Z" fill="#292F36"/>
</svg>
